<svg width="512" height="512" viewBox="0 0 512 512" fill="none" xmlns="http://www.w3.org/2000/svg">
<rect x="1.5" y="1.5" width="509" height="509" rx="51.5" fill="black" stroke="#4891FF" stroke-width="3"/>
<path opacity="0.2" d="M316.188 315.938L352.375 364.188H159.375L195.563 315.938H316.188ZM328.25 195.313C321.093 195.313 314.096 197.435 308.145 201.411C302.194 205.388 297.556 211.039 294.817 217.652C292.078 224.264 291.362 231.54 292.758 238.56C294.154 245.58 297.601 252.028 302.662 257.088C307.722 262.149 314.17 265.596 321.19 266.992C328.21 268.388 335.486 267.672 342.098 264.933C348.711 262.194 354.363 257.556 358.339 251.605C362.315 245.654 364.438 238.657 364.438 231.5C364.438 221.903 360.625 212.698 353.838 205.912C347.052 199.125 337.848 195.313 328.25 195.313ZM219.688 231.5C219.688 224.343 217.565 217.346 213.589 211.395C209.612 205.444 203.961 200.806 197.348 198.067C190.736 195.328 183.46 194.612 176.44 196.008C169.42 197.404 162.973 200.851 157.912 205.912C152.851 210.973 149.404 217.421 148.008 224.44C146.612 231.46 147.328 238.736 150.067 245.348C152.806 251.961 157.444 257.613 163.395 261.589C169.346 265.565 176.343 267.688 183.5 267.688C193.098 267.688 202.302 263.875 209.088 257.088C215.875 250.302 219.688 241.098 219.688 231.5Z" fill="black"/>
<path d="M386.286 147H125.714C119.955 147 114.432 149.286 110.36 153.356C106.288 157.425 104 162.945 104 168.7V342.3C104 348.055 106.288 353.575 110.36 357.644C114.432 361.714 119.955 364 125.714 364H386.286C392.045 364 397.568 361.714 401.64 357.644C405.712 353.575 408 348.055 408 342.3V168.7C408 162.945 405.712 157.425 401.64 153.356C397.568 149.286 392.045 147 386.286 147ZM190.857 342.3L207.143 320.6H304.857L321.143 342.3H190.857ZM386.286 342.3H348.286L318.971 303.24C317.96 301.892 316.649 300.799 315.141 300.045C313.634 299.292 311.971 298.9 310.286 298.9H201.714C200.029 298.9 198.366 299.292 196.859 300.045C195.351 300.799 194.04 301.892 193.029 303.24L163.714 342.3H125.714V168.7H386.286V342.3ZM321.143 190.4H190.857C179.339 190.4 168.293 194.972 160.149 203.112C152.004 211.251 147.429 222.29 147.429 233.8C147.429 245.31 152.004 256.349 160.149 264.488C168.293 272.628 179.339 277.2 190.857 277.2H321.143C332.661 277.2 343.707 272.628 351.851 264.488C359.996 256.349 364.571 245.31 364.571 233.8C364.571 222.29 359.996 211.251 351.851 203.112C343.707 194.972 332.661 190.4 321.143 190.4ZM283.55 212.1C279.728 218.694 277.715 226.18 277.715 233.8C277.715 241.421 279.728 248.906 283.55 255.5H228.45C232.272 248.906 234.285 241.421 234.285 233.8C234.285 226.18 232.272 218.694 228.45 212.1H283.55ZM169.143 233.8C169.143 229.508 170.416 225.313 172.802 221.744C175.188 218.176 178.58 215.394 182.547 213.752C186.515 212.109 190.881 211.68 195.093 212.517C199.306 213.354 203.175 215.421 206.211 218.456C209.248 221.491 211.316 225.357 212.154 229.567C212.992 233.776 212.562 238.139 210.919 242.104C209.275 246.069 206.492 249.458 202.921 251.843C199.35 254.227 195.152 255.5 190.857 255.5C185.098 255.5 179.575 253.214 175.503 249.144C171.431 245.075 169.143 239.555 169.143 233.8ZM321.143 255.5C316.848 255.5 312.65 254.227 309.079 251.843C305.508 249.458 302.725 246.069 301.081 242.104C299.438 238.139 299.008 233.776 299.846 229.567C300.684 225.357 302.752 221.491 305.789 218.456C308.825 215.421 312.694 213.354 316.907 212.517C321.119 211.68 325.485 212.109 329.453 213.752C333.42 215.394 336.812 218.176 339.198 221.744C341.584 225.313 342.857 229.508 342.857 233.8C342.857 239.555 340.569 245.075 336.497 249.144C332.425 253.214 326.902 255.5 321.143 255.5Z" fill="#4891FF"/>
</svg>
